PathFileType	4	(X/Y/Z)	22_2_28_p1_0-321.trc
DataRate	CameraRate	NumFrames	NumMarkers	Units	OrigDataRate	OrigDataStartFrame	OrigNumFrames
59.0	59.0	5	27	m	59.0	80	322
Frame#	Time	RHip			RKnee			RAnkle			RBigToe			RSmallToe			RHeel			LHip			LKnee			LAnkle			LBigToe			LSmallToe			LHeel			Neck			Head			Nose			RShoulder			RElbow			RWrist			RThumb			RIndex			RPinky			LShoulder			LElbow			LWrist			LThumb			LIndex			LPinky			
		X1	Y1	Z1	X2	Y2	Z2	X3	Y3	Z3	X4	Y4	Z4	X5	Y5	Z5	X6	Y6	Z6	X7	Y7	Z7	X8	Y8	Z8	X9	Y9	Z9	X10	Y10	Z10	X11	Y11	Z11	X12	Y12	Z12	X13	Y13	Z13	X14	Y14	Z14	X15	Y15	Z15	X16	Y16	Z16	X17	Y17	Z17	X18	Y18	Z18	X19	Y19	Z19	X20	Y20	Z20	X21	Y21	Z21	X22	Y22	Z22	X23	Y23	Z23	X24	Y24	Z24	X25	Y25	Z25	X26	Y26	Z26	X27	Y27	Z27	
80	1.3559322033898304	0.273643334580999	0.6192653325509866	1.0696087516432427	0.27575236393248437	0.7658272398328981	1.4324278999871696	0.2922912885386216	0.9606536991292417	1.835013750509008	0.2556534273526673	0.7242792334022295	1.8790549001745334	0.31342466949236136	0.7702005971739878	1.881671537705302	0.2886953142520487	1.009377260032248	1.878849077500749	0.037932408086422016	0.6649601315058786	1.0720529580814562	0.08129094493075252	0.8005184302080226	1.442092473573624	0.09988309213342021	0.91601973725374	1.8233356856427618	0.10277916867715813	0.7584505264607401	1.8828929757409396	0.05068259892446512	0.7881056666008226	1.8767347794702527	0.13352215758799552	0.979266380689915	1.8773260126784248	0.12115488233390725	0.47006326880006033	0.48709534775402513	0.11126804814783864	0.3320783692263012	0.25551962358010205	0.10435345148713375	0.28954634699594456	0.4106966059740253	0.2669361757409142	0.46198342382097163	0.5579366469074587	0.3685785472496571	0.5101154551118647	0.7911731915000837	0.25176929338531284	0.3507793230446431	0.8821217977521911	0.13837219422602876	0.3185251356305139	0.922314832739822	0.1567656379718602	0.29318037631006677	0.9416850832179435	0.18390205946573987	0.30217696215672873	0.9630830959718505	-0.040823378571686574	0.48860962426463755	0.5669586234453995	-0.08274496791435831	0.6202489070617305	0.7647616062045598	-0.048561676878205846	0.4035176889792879	0.8922397310788285	0.014636831130374069	0.30618595117083935	0.9377994924211913	-0.0037003993041078097	0.2729474783413482	0.9501237360451043	-0.03921192266231632	0.3498932295560626	0.9867655220914451
81	1.3728813559322033	0.27557146856482717	0.6040108913966507	1.067804653162755	0.2761053303898185	0.7652749024664282	1.4363023163668853	0.29235744420931975	0.9609323665222604	1.835067209432519	0.25597963067911106	0.7249072682587117	1.8791769796159121	0.31408969040795215	0.7715105681395354	1.8819645297104328	0.28874200396824656	1.0112546476777549	1.8752006426698398	0.04207278170290126	0.6650964089314227	1.0642079923877557	0.08118866948394902	0.8006050356234106	1.4420328744867006	0.09988000901520162	0.9163087616250073	1.8234688515654456	0.10283638400461792	0.7587213746042268	1.8830184377671335	0.0557534725687227	0.8045036728285807	1.8822349067335173	0.12808512515906428	0.9757267099647414	1.8760161797634893	0.12124016383214979	0.47019809283885683	0.4870815078239347	0.11117259192935706	0.33203420128748007	0.25552594174992266	0.09817129852346725	0.30125047035536495	0.4097320011237688	0.2668939698005687	0.46277377623873384	0.5615340779860869	0.36862261214169917	0.5094044779264307	0.788233505676161	0.24975152936645478	0.34705735443562596	0.8711059402963421	0.1354003502312688	0.31182427754447334	0.8862340766051875	0.14201504847439284	0.2800462541492289	0.9073117110099016	0.1801256399205563	0.29408309730704196	0.9452174658613084	-0.04070009901464637	0.48905850729581607	0.5668837461833276	-0.08736988217117309	0.6192558933179062	0.7684347252476947	-0.049097471446907376	0.4233091429775832	0.8743689846429651	0.014168603875441388	0.2906120154180712	0.8900805796355032	-0.0020305537010957622	0.26850738137537056	0.9269110405870994	-0.029446987990115307	0.3323924898981682	0.9598595861915186
82	1.3898305084745763	0.2680123521083267	0.6155471409614045	1.0611979206975712	0.2760573282187237	0.7651979745323148	1.4362170152321947	0.29236676406433215	0.9608089971917331	1.8350199520566082	0.25542475619685207	0.7237456660626497	1.8790476277099593	0.3135842399986727	0.7706572055689294	1.8817942549673372	0.2942176277620171	1.0283011031390112	1.8853246973554565	0.036647229351973	0.6615630312797715	1.0601845862209112	0.07981559794039081	0.797956755127207	1.436662444817554	0.09980043915113755	0.9160175353739266	1.8231976174129583	0.10286175703075108	0.7586558510922293	1.8829051334394427	0.051612882345917016	0.7864239568803923	1.8725588446751311	0.1374330060424797	0.9912870475407897	1.8776222149162676	0.1212345283648333	0.47040759601214266	0.48713372417407125	0.10670822777382068	0.32196161508683596	0.25770151244131995	0.09813762484146661	0.3012640645437335	0.4097535629972945	0.26699433158112146	0.46166937482774123	0.5577964134629785	0.3687782684253048	0.5084291538841456	0.7854642885271388	0.2459306127543581	0.3397429986193587	0.8452753168362133	0.12401538043468262	0.30248894278217614	0.8611268199642462	0.13850527454937936	0.27287967539436514	0.8740988273713504	0.16742422242502533	0.3232670721652736	0.9220068604906864	-0.04097126466030884	0.4895344035665999	0.5668116123868088	-0.08663074523033046	0.6205609888574666	0.7641059150856454	-0.04665612455758686	0.4100708868254862	0.8591201645995702	0.015677235492301975	0.2966876465889714	0.8728275712510065	-0.0010098759084182917	0.2642476814206201	0.8894490447899157	-0.009470197684480791	0.30531769524977237	0.9427413447709818
83	1.4067796610169492	0.2661276362925743	0.6306844262197203	1.0625086472169205	0.2760937889314656	0.7651892035090793	1.4362237820930166	0.29236898561182423	0.9605979531779603	1.8349898093496724	0.25551595145305334	0.7238563774273395	1.8790870314219184	0.31378364236761375	0.7709027336134149	1.8818588192339074	0.2876661837322646	1.0116585418744075	1.8800882024304013	0.03677511651262027	0.6622213073319446	1.0599698077955133	0.07986908040650921	0.7981207207418994	1.4366682562744915	0.09983870165176063	0.9163270254655311	1.8235342672839685	0.10286620769922576	0.7584391327738759	1.882947292236903	0.05083402060364738	0.7875333983050166	1.8765041980964294	0.1387234994462188	0.994059288755561	1.8822663654803478	0.12105963229330798	0.47048730513406356	0.4872605337703824	0.1069159879673875	0.3228951383615952	0.25761335851386596	0.09805704669608098	0.30133626263063606	0.4097167528120929	0.2628792178323293	0.46241735716359417	0.5615850830246429	0.3687165236839828	0.508265851411317	0.7858189953213399	0.2376233476044877	0.3375065835682771	0.8271554562746376	0.1178588173737751	0.2905236474666545	0.838546112967527	0.1278488068746855	0.23432237956243604	0.8534960903797227	0.16073807580825916	0.32876160811097827	0.8940435806039047	-0.04523367686751242	0.4884672955310168	0.5606156422285884	-0.08641399682338038	0.6217620925129043	0.7638213119475465	-0.05191359580428788	0.3961969008511996	0.8473287376534643	0.01197703632579749	0.2916133420167948	0.8512538083330443	-0.005860448131800913	0.25856701431124235	0.8648182317806183	-0.00440046448458829	0.302569767119845	0.9097706491425974
84	1.423728813559322	0.26879656429907894	0.6285175748053404	1.0539518557273582	0.2758579606734047	0.7658023668971126	1.4322785721410138	0.2955886086494017	0.9449007087969521	1.8341387827130806	0.25564015238782706	0.724628732553074	1.8792871299520617	0.31361842881845764	0.7714160107496958	1.8820932716730374	0.2884278105423593	1.010517493946024	1.8749959653019457	0.0416318129472276	0.6751812593282515	1.0608959100174813	0.0805435506112596	0.7968444194688398	1.4321820252130877	0.10091618577151464	0.9200854749455103	1.824952014450438	0.10054433652574149	0.774339232571933	1.8887003063283894	0.05059737303603226	0.7882522568912935	1.8768577248626563	0.12741948057278019	0.9757708588870074	1.8717158119154162	0.12040033997589919	0.4692287090877562	0.4843507442933691	0.10028297121235515	0.33396802845630824	0.256211942508909	0.09832819709765434	0.3016625162155899	0.41299912394823546	0.2665813875144724	0.4605763045898967	0.5544651132246344	0.3687110837636994	0.5078092427951422	0.78606183939968	0.23492274803124863	0.32278128427902836	0.8032348129499077	0.10911801845434445	0.2682566138636007	0.7898214899087329	0.10837036878551232	0.22966949525151886	0.8076438034753411	0.15669493252322295	0.3175216589840032	0.8646478641367105	-0.045117661962115946	0.4897358824603862	0.5670633520376336	-0.0899387586967218	0.6358144557876918	0.7636860429294284	-0.04291506749455044	0.4054134806421172	0.8280401227803258	0.0156268770962736	0.294218980928109	0.8048078710410833	-0.007153400637284431	0.2550051736812243	0.8343090954751471	-0.0017608410966084415	0.2918531379594196	0.8707543606402914
